KRSPY-parametric-NarrowBlackMinGrade.ufo
<glyph name="one" format="2">
  <advance width="838.1081081081081"/>
  <unicode hex="0031"/>
  <outline>
    <contour>
      <point x="52.252252252252255" y="0.0" type="line"/>
      <point x="789.4954954954956" y="0.0" type="line" identifier="CURJAw79Zl"/>
      <point x="789.4954954954956" y="421.4794794794795" type="line" identifier="0DUCJo8xIi"/>
      <point x="698.1981981981983" y="421.4794794794795" type="line" identifier="5nmxQXofSG"/>
      <point x="698.1981981981983" y="1600.0" type="line" identifier="4rjIeWbSbx"/>
      <point x="48.612612612612615" y="1600.0" type="line"/>
      <point x="48.612612612612615" y="1178.5205205205204" type="line"/>
      <point x="143.54954954954957" y="1178.5205205205204" type="line"/>
      <point x="143.54954954954957" y="421.4794794794795" type="line"/>
      <point x="52.252252252252255" y="421.4794794794795" type="line"/>
    </contour>
  </outline>
</glyph>
<glyph name="two" format="2">
  <advance width="1493"/>
  <unicode hex="0032"/>
  <outline>
    <contour>
      <point x="139" y="0" type="line"/>
      <point x="1355" y="0" type="line" identifier="pzdvPTirLJ"/>
      <point x="1355" y="494" type="line" identifier="91SxUS0iwG"/>
      <point x="800" y="494" type="line" identifier="fP7EN0pUcl"/>
      <point x="800" y="421" type="line" identifier="eb458Bdvng"/>
      <point x="693" y="421" type="line"/>
      <point x="693" y="496" type="line" identifier="9fjc25rkUx"/>
      <point x="1349" y="984" type="line" identifier="yyb1NCCI5w"/>
      <point x="1349" y="1600" type="line" identifier="5FogYRSgkk"/>
      <point x="142" y="1600" type="line" identifier="svlFvrau4c"/>
      <point x="142" y="1012" type="line" identifier="LQ9fBsTy9K"/>
      <point x="697" y="1012" type="line" identifier="jS6EyIAKtm"/>
      <point x="697" y="1179" type="line"/>
      <point x="794" y="1179" type="line" identifier="N6CMAjhNlU"/>
      <point x="794" y="985" type="line" identifier="yK1d5IcluK"/>
      <point x="139" y="498" type="line" identifier="teVKnpBcVb"/>
    </contour>
  </outline>
</glyph>
<glyph name="three" format="2">
  <advance width="1365.063063063063"/>
  <unicode hex="0033"/>
  <outline>
    <contour>
      <point x="75.2072072072072" y="0.0" type="line" identifier="O9abUc1nmN"/>
      <point x="1290.855855855856" y="0.0" type="line" identifier="kMJYMTfXCq"/>
      <point x="1290.855855855856" y="903.015015015015" type="line" identifier="su2XmdS8e8"/>
      <point x="1178.063063063063" y="903.015015015015" type="line" identifier="JQaOzDQqlF"/>
      <point x="1178.063063063063" y="905.1981981981983" type="line"/>
      <point x="1249.5945945945946" y="970.1291291291291" type="line" identifier="S91TzLL02W"/>
      <point x="1249.5945945945946" y="1600.0" type="line" identifier="xg8x2Ki40p"/>
      <point x="77.84684684684686" y="1600.0" type="line" identifier="pE1XSRiy68"/>
      <point x="77.84684684684686" y="1002.4014014014015" type="line" identifier="5lNstGRcSF"/>
      <point x="632.4954954954956" y="1002.4014014014015" type="line" identifier="AcE5xKDZfE"/>
      <point x="632.4954954954956" y="1169.4014014014015" type="line" identifier="7ogBYufWpl"/>
      <point x="694.9459459459459" y="1169.4014014014015" type="line" identifier="RHLvSX2Jv6"/>
      <point x="694.9459459459459" y="970.1291291291291" type="line" identifier="YUjTrmoWd9"/>
      <point x="628.5315315315315" y="905.8378378378378" type="line"/>
      <point x="628.5315315315315" y="903.015015015015" type="line" identifier="iic1IBkDqp"/>
      <point x="152.0900900900901" y="903.015015015015" type="line" identifier="lRLJEhXMlO"/>
      <point x="152.0900900900901" y="645.6796796796797" type="line" identifier="8aKgEELrVU"/>
      <point x="736.2072072072073" y="645.6796796796797" type="line" identifier="Dm8zjmbhNr"/>
      <point x="736.2072072072073" y="421.4794794794795" type="line" identifier="xv9CFHiFgB"/>
      <point x="629.8558558558559" y="421.4794794794795" type="line" identifier="YajKQV3MHP"/>
      <point x="629.8558558558559" y="542.5985985985985" type="line" identifier="36SchVkwze"/>
      <point x="75.2072072072072" y="542.5985985985985" type="line" identifier="tVui9PiOjA"/>
    </contour>
  </outline>
</glyph>
<glyph name="four" format="2">
  <advance width="1350.144144144144"/>
  <unicode hex="0034"/>
  <outline>
    <contour>
      <point x="703.7297297297298" y="0.0" type="line"/>
      <point x="1258.3783783783783" y="0.0" type="line"/>
      <point x="1258.3783783783783" y="574.902902902903" type="line"/>
      <point x="1345.5855855855857" y="574.902902902903" type="line"/>
      <point x="1345.5855855855857" y="996.3823823823824" type="line"/>
      <point x="1258.3783783783783" y="996.3823823823824" type="line"/>
      <point x="1258.3783783783783" y="1600.0" type="line"/>
      <point x="703.7297297297298" y="1600.0" type="line"/>
      <point x="703.7297297297298" y="996.3823823823824" type="line"/>
      <point x="614.936936936937" y="996.3823823823824" type="line"/>
      <point x="614.936936936937" y="1040.905905905906" type="line"/>
      <point x="699.4344344344345" y="1680.0" type="line"/>
      <point x="157.93893893893895" y="1680.0" type="line"/>
      <point x="60.28828828828829" y="1039.905905905906" type="line"/>
      <point x="60.28828828828829" y="574.902902902903" type="line"/>
      <point x="703.7297297297298" y="574.902902902903" type="line"/>
    </contour>
  </outline>
</glyph>
<glyph name="five" format="2">
  <advance width="1367.063063063063"/>
  <unicode hex="0035"/>
  <outline>
    <contour>
      <point x="79.93493493493494" y="0.0" type="line" identifier="09VlJ0BjUX"/>
      <point x="1288.2162162162163" y="0.0" type="line" identifier="EagWihqFM8"/>
      <point x="1288.2162162162163" y="967.0690690690691" type="line" identifier="KfNuQA7eZe"/>
      <point x="633.4954954954956" y="1018.4264264264265" type="line" identifier="At364YZFEy"/>
      <point x="633.4954954954956" y="1178.5205205205204" type="line" identifier="BcuLfvaQKC"/>
      <point x="1288.2162162162163" y="1178.5205205205204" type="line" identifier="3ZUkG35meB"/>
      <point x="1288.2162162162163" y="1600.0" type="line" identifier="SaF9ojRFrW"/>
      <point x="78.84684684684686" y="1600.0" type="line" identifier="F4sQEYelA8"/>
      <point x="78.84684684684686" y="665.0940940940941" type="line" identifier="3sQ8t8BZ6b"/>
      <point x="733.5675675675676" y="613.097097097097" type="line" identifier="yiV6OCBLHg"/>
      <point x="733.5675675675676" y="421.4794794794795" type="line" identifier="9kdl9SYsn8"/>
      <point x="634.5835835835836" y="421.4794794794795" type="line" identifier="yZDWuX8LLe"/>
      <point x="634.5835835835836" y="525.6926926926926" type="line" identifier="jYb9001DTm"/>
      <point x="79.93493493493494" y="525.6926926926926" type="line" identifier="ho4DrS0rdW"/>
    </contour>
  </outline>
</glyph>
<glyph name="six" format="2">
  <advance width="1498"/>
  <unicode hex="0036"/>
  <outline>
    <contour>
      <point x="140" y="0" type="line" identifier="uiw6aBUf4P"/>
      <point x="1356" y="0" type="line" identifier="jtYkxiUX6G"/>
      <point x="1356" y="920" type="line" identifier="2G5L37c87I"/>
      <point x="694" y="920" type="line"/>
      <point x="694" y="1074" type="line"/>
      <point x="710" y="1179" type="line"/>
      <point x="801" y="1179" type="line"/>
      <point x="801" y="1032" type="line"/>
      <point x="1355" y="1032" type="line" identifier="Wuidbv6mUe"/>
      <point x="1355" y="1600" type="line" identifier="oGvEEuxnYv"/>
      <point x="184" y="1600" type="line" identifier="xR3pEHbMJx"/>
      <point x="140" y="1075" type="line" identifier="KnMArb0tv8"/>
    </contour>
    <contour>
      <point x="802" y="571" type="line"/>
      <point x="802" y="421" type="line"/>
      <point x="694" y="421" type="line"/>
      <point x="694" y="571" type="line"/>
    </contour>
  </outline>
</glyph>
<glyph name="seven" format="2">
  <advance width="1359.4234234234234"/>
  <unicode hex="0037"/>
  <outline>
    <contour>
      <point x="534.3653653653655" y="0.0" type="line"/>
      <point x="1089.014014014014" y="0.0" type="line" identifier="PiPrv7Kcoy"/>
      <point x="1284.5765765765766" y="1034.7837837837837" type="line" identifier="PkvwNC9Tx1"/>
      <point x="1284.5765765765766" y="1600.0" type="line" identifier="tgqM27bPOm"/>
      <point x="69.56756756756758" y="1600.0" type="line" identifier="36ml4xRICt"/>
      <point x="69.56756756756758" y="940.5205205205204" type="line" identifier="aaDZsh5Mah"/>
      <point x="624.2162162162163" y="940.5205205205204" type="line"/>
      <point x="624.2162162162163" y="1178.5205205205204" type="line"/>
      <point x="729.927927927928" y="1178.5205205205204" type="line"/>
      <point x="729.927927927928" y="1160.4164164164165" type="line"/>
    </contour>
  </outline>
</glyph>
<glyph name="eight" format="2">
  <advance width="1402.1801801801803"/>
  <unicode hex="0038"/>
  <outline>
    <contour>
      <point x="702.2142142142143" y="634.8558558558559" type="line"/>
      <point x="761.4054054054054" y="570.6176176176176" type="line"/>
      <point x="761.4054054054054" y="421.4794794794795" type="line"/>
      <point x="640.7747747747748" y="421.4794794794795" type="line"/>
      <point x="640.7747747747748" y="570.6176176176176" type="line"/>
      <point x="699.965965965966" y="634.8558558558559" type="line"/>
    </contour>
    <contour>
      <point x="1194.4504504504505" y="799.0" type="line"/>
      <point x="1194.4504504504505" y="801.0" type="line"/>
      <point x="1312.4144144144145" y="970.927927927928" type="line"/>
      <point x="1312.4144144144145" y="1600.0" type="line"/>
      <point x="89.76576576576576" y="1600.0" type="line"/>
      <point x="89.76576576576576" y="970.927927927928" type="line"/>
      <point x="209.55355355355357" y="801.0" type="line"/>
      <point x="209.55355355355357" y="799.0" type="line"/>
      <point x="86.12612612612614" y="626.072072072072" type="line"/>
      <point x="86.12612612612614" y="0.0" type="line"/>
      <point x="1316.0540540540542" y="0.0" type="line"/>
      <point x="1316.0540540540542" y="626.072072072072" type="line"/>
    </contour>
    <contour>
      <point x="699.965965965966" y="965.1441441441441" type="line"/>
      <point x="644.4144144144144" y="1026.3823823823823" type="line"/>
      <point x="644.4144144144144" y="1178.5205205205204" type="line"/>
      <point x="757.7657657657658" y="1178.5205205205204" type="line"/>
      <point x="757.7657657657658" y="1026.3823823823823" type="line"/>
      <point x="702.2142142142143" y="965.1441441441441" type="line"/>
    </contour>
  </outline>
</glyph>
<glyph name="nine" format="2">
  <advance width="1358.4234234234234"/>
  <unicode hex="0039"/>
  <outline>
    <contour>
      <point x="1287.2162162162163" y="1600.0" type="line" identifier="uiw6aBUf4P"/>
      <point x="70.65565565565566" y="1600.0" type="line" identifier="jtYkxiUX6G"/>
      <point x="70.65565565565566" y="662.2132132132132" type="line" identifier="2G5L37c87I"/>
      <point x="732.5675675675676" y="662.2132132132132" type="line"/>
      <point x="732.5675675675676" y="421.4794794794795" type="line"/>
      <point x="626.8558558558559" y="421.4794794794795" type="line"/>
      <point x="626.8558558558559" y="559.1691691691692" type="line"/>
      <point x="72.2072072072072" y="559.1691691691692" type="line" identifier="Wuidbv6mUe"/>
      <point x="72.2072072072072" y="0.0" type="line" identifier="oGvEEuxnYv"/>
      <point x="1287.2162162162163" y="0.0" type="line" identifier="xR3pEHbMJx"/>
    </contour>
    <contour>
      <point x="625.3043043043043" y="1001.6206206206207" type="line"/>
      <point x="625.3043043043043" y="1178.5205205205204" type="line"/>
      <point x="732.5675675675676" y="1178.5205205205204" type="line"/>
      <point x="732.5675675675676" y="1001.6206206206207" type="line"/>
    </contour>
  </outline>
</glyph>
<glyph name="B" format="2">
  <advance width="1344.5315315315315"/>
  <unicode hex="0042"/>
  <outline>
    <contour>
      <point x="64.83083083083085" y="0.0" type="line" identifier="hvY9r8RmLr"/>
      <point x="1281.4794794794796" y="0.0" type="line" identifier="9QFpw7nfq7"/>
      <point x="1281.4794794794796" y="633.4324324324324" type="line" identifier="543PerILpr"/>
      <point x="1178.3983983983985" y="799.0" type="line" identifier="zhomauHW30"/>
      <point x="1178.3983983983985" y="801.0" type="line" identifier="870ZhtaozS"/>
      <point x="1277.83983983984" y="970.2882882882883" type="line" identifier="eGKH52Jgnk"/>
      <point x="1277.83983983984" y="1600.0" type="line" identifier="FaP204GrdB"/>
      <point x="64.83083083083085" y="1600.0" type="line" identifier="JEev70GAj6"/>
    </contour>
    <contour>
      <point x="619.4794794794796" y="983.3823823823824" type="line" identifier="By7dfMihfe"/>
      <point x="619.4794794794796" y="1176.6966966966966" type="line" identifier="1p5hKrurVy"/>
      <point x="723.1911911911913" y="1176.6966966966966" type="line" identifier="Qby8aMtF2X"/>
      <point x="723.1911911911913" y="1089.7067067067069" type="line" identifier="9lW01gQyU2"/>
      <point x="686.1621621621622" y="983.3823823823824" type="line" identifier="xpxyvIzPoc"/>
    </contour>
    <contour>
      <point x="619.4794794794796" y="421.4794794794795" type="line" identifier="jaMSiLrCua"/>
      <point x="619.4794794794796" y="616.6176176176176" type="line" identifier="XSrxNd2axx"/>
      <point x="686.1621621621622" y="616.6176176176176" type="line" identifier="VyYlzRh5nq"/>
      <point x="726.8308308308309" y="514.014014014014" type="line" identifier="lsRGatjQja"/>
      <point x="726.8308308308309" y="421.4794794794795" type="line" identifier="xhlDJ3CjD5"/>
    </contour>
  </outline>
</glyph>
<glyph name="C" format="2">
  <advance width="1335.803803803804"/>
  <unicode hex="0043"/>
  <outline>
    <contour>
      <point x="60.84584584584586" y="0.0" type="line" identifier="7lPhzTnk2Z"/>
      <point x="1276.854854854855" y="0.0" type="line" identifier="qJVLZGnkwh"/>
      <point x="1276.854854854855" y="601.8288288288288" type="line" identifier="nDnDHzAMXL"/>
      <point x="722.2062062062063" y="601.8288288288288" type="line" identifier="QX1V08aTu0"/>
      <point x="722.2062062062063" y="421.4794794794795" type="line" identifier="Y750RHTvDj"/>
      <point x="615.4944944944946" y="421.4794794794795" type="line" identifier="L2LsGnXiZ2"/>
      <point x="615.4944944944946" y="963.998998998999" type="line" identifier="sUWsr03vF4"/>
      <point x="655.6266266266266" y="1178.5205205205204" type="line" identifier="dbOUe6OhxL"/>
      <point x="721.2062062062063" y="1178.5205205205204" type="line" identifier="5BjRbcud80"/>
      <point x="721.2062062062063" y="858.7907907907909" type="line" identifier="fNVDqwQo2o"/>
      <point x="1275.854854854855" y="858.7907907907909" type="line" identifier="wLqQQx7QVN"/>
      <point x="1275.854854854855" y="1600.0" type="line" identifier="9eJelv8BOw"/>
      <point x="175.84584584584584" y="1600.0" type="line" identifier="lfZev3ICaC"/>
      <point x="60.84584584584586" y="996.0690690690691" type="line" identifier="V1EWIdPahq"/>
    </contour>
  </outline>
</glyph>
<glyph name="E" format="2">
  <advance width="1375.2242242242241"/>
  <unicode hex="0045"/>
  <outline>
    <contour>
      <point x="90.66266266266265" y="0.0" type="line" identifier="fZynkQ4XHB"/>
      <point x="1221.6356356356357" y="0.0" type="line" identifier="FAQNpgUPxV"/>
      <point x="1221.6356356356357" y="505.6206206206206" type="line" identifier="gHI0YjrPxR"/>
      <point x="743.7437437437438" y="505.6206206206206" type="line" identifier="gxCIuXb4el"/>
      <point x="743.7437437437438" y="404.15315315315314" type="line" identifier="5cgTYOhATF"/>
      <point x="645.3113113113113" y="404.15315315315314" type="line" identifier="bWs42DaCgU"/>
      <point x="645.3113113113113" y="607.4984984984985" type="line" identifier="VtD2aADJmn"/>
      <point x="1174.053053053053" y="607.4984984984985" type="line" identifier="PpbsFdHAnS"/>
      <point x="1174.053053053053" y="993.4134134134134" type="line" identifier="8WuC5p8Ax5"/>
      <point x="645.3113113113113" y="993.4134134134134" type="line" identifier="m39IWn9ntA"/>
      <point x="645.3113113113113" y="1205.8778778778778" type="line" identifier="gQ21I4SHQg"/>
      <point x="742.7437437437438" y="1205.8778778778778" type="line" identifier="eqNb2VTwYs"/>
      <point x="742.7437437437438" y="1097.2912912912914" type="line" identifier="mLmcFoJA4m"/>
      <point x="1220.6356356356357" y="1097.2912912912914" type="line" identifier="e79n7CoPy1"/>
      <point x="1220.6356356356357" y="1600.0" type="line" identifier="qYRmo14Il5"/>
      <point x="90.66266266266265" y="1600.0" type="line" identifier="HmJIcnLWfC"/>
    </contour>
  </outline>
</glyph>
<glyph name="I" format="2">
  <advance width="1020.8588588588589"/>
  <unicode hex="0049"/>
  <outline>
    <contour>
      <point x="81.31531531531532" y="0.0" type="line" identifier="u8XZE2STzL"/>
      <point x="938.6316316316316" y="0.0" type="line" identifier="1Ty0JfMohF"/>
      <point x="938.6316316316316" y="421.4794794794795" type="line" identifier="quzaPWszgr"/>
      <point x="787.6176176176177" y="421.4794794794795" type="line" identifier="1m237t4hyw"/>
      <point x="787.6176176176177" y="1178.5205205205204" type="line" identifier="v7N4yg5XNk"/>
      <point x="938.6316316316316" y="1178.5205205205204" type="line" identifier="9RiQmr3G8U"/>
      <point x="938.6316316316316" y="1600.0" type="line" identifier="jZjJqwR81q"/>
      <point x="81.31531531531532" y="1600.0" type="line" identifier="PL3Zqx19x8"/>
      <point x="81.31531531531532" y="1178.5205205205204" type="line" identifier="O5ZoWKLuW7"/>
      <point x="232.32932932932934" y="1178.5205205205204" type="line" identifier="zfocDyDTCM"/>
      <point x="232.32932932932934" y="421.4794794794795" type="line" identifier="S4rO5KuHiL"/>
      <point x="81.31531531531532" y="421.4794794794795" type="line" identifier="aCoxe3fSmw"/>
    </contour>
  </outline>
</glyph>
<glyph name="J" format="2">
  <advance width="1338.4584584584586"/>
  <unicode hex="004A"/>
  <outline>
    <contour>
      <point x="104.37537537537538" y="0.0" type="line" identifier="jiO9eX9U07"/>
      <point x="1273.6276276276276" y="0.0" type="line" identifier="wgpFs1yguc"/>
      <point x="1273.6276276276276" y="1600.0" type="line" identifier="d5Di3vNzni"/>
      <point x="60.61861861861861" y="1600.0" type="line" identifier="TbrXnCyMEi"/>
      <point x="60.61861861861861" y="1178.5205205205204" type="line" identifier="AdYfGKx8QJ"/>
      <point x="718.9789789789791" y="1178.5205205205204" type="line" identifier="46RrD1WET2"/>
      <point x="718.9789789789791" y="421.4794794794795" type="line" identifier="zFXsE8BUYG"/>
      <point x="638.0500500500501" y="421.4794794794795" type="line" identifier="NQmE31PUns"/>
      <point x="611.7157157157158" y="765.4794794794796" type="line" identifier="qiXxY6YhCq"/>
      <point x="57.978978978978986" y="765.4794794794796" type="line" identifier="7exNZv1XSc"/>
    </contour>
  </outline>
</glyph>
<glyph name="M" format="2">
  <advance width="2468"/>
  <unicode hex="004D"/>
  <outline>
    <contour>
      <point x="849" y="80" type="line" identifier="0Dn4Xpf57M"/>
      <point x="794" y="1179" type="line"/>
      <point x="758" y="1179" type="line"/>
      <point x="758" y="0" type="line"/>
      <point x="204" y="0" type="line"/>
      <point x="204" y="1600" type="line"/>
      <point x="1171" y="1600" type="line"/>
      <point x="1223" y="465" type="line"/>
      <point x="1245" y="465" type="line" identifier="9aKZPM0HPh"/>
      <point x="1297" y="1600" type="line"/>
      <point x="2264" y="1600" type="line"/>
      <point x="2264" y="0" type="line"/>
      <point x="1709" y="0" type="line"/>
      <point x="1709" y="1179" type="line"/>
      <point x="1673" y="1179" type="line"/>
      <point x="1619" y="80" type="line" identifier="spdoeeCFft"/>
    </contour>
  </outline>
</glyph>
<glyph name="N" format="2">
  <advance width="1805.7107107107108"/>
  <unicode hex="004E"/>
  <outline>
    <contour>
      <point x="157.3753753753754" y="0.0" type="line" identifier="CkwYPPvJLv"/>
      <point x="712.0240240240241" y="0.0" type="line" identifier="oHTJsN7drZ"/>
      <point x="712.0240240240241" y="1205.8778778778778" type="line" identifier="wfBbYd10Pm"/>
      <point x="741.6156156156156" y="1205.8778778778778" type="line" identifier="MEnBDHq6zU"/>
      <point x="835.1821821821821" y="0.0" type="line" identifier="3Nbopwznvn"/>
      <point x="1721.8938938938938" y="0.0" type="line" identifier="uKfuudIUvA"/>
      <point x="1721.8938938938938" y="1600.0" type="line" identifier="XRdLFXiM4t"/>
      <point x="1167.2452452452453" y="1600.0" type="line" identifier="MUSJPjCIXg"/>
      <point x="1167.2452452452453" y="394.1221221221221" type="line" identifier="VILP20cFmq"/>
      <point x="1141.0500500500502" y="394.1221221221221" type="line" identifier="z5b04GDwRN"/>
      <point x="1044.2852852852852" y="1600.0" type="line" identifier="LL64NQ6WBE"/>
      <point x="157.3753753753754" y="1600.0" type="line" identifier="dzUaaP1sjt"/>
    </contour>
  </outline>
</glyph>
<glyph name="O" format="2">
  <advance width="1389.7977977977978"/>
  <unicode hex="004F"/>
  <outline>
    <contour>
      <point x="1304.2232232232234" y="559.7167167167167" type="line" identifier="ob8US3C311"/>
      <point x="1304.2232232232234" y="1600.0" type="line" identifier="c9brEFyXXA"/>
      <point x="207.84484484484486" y="1600.0" type="line" identifier="a4Ql951bxG"/>
      <point x="85.57457457457457" y="1036.8488488488488" type="line" identifier="kbL68Qh2zr"/>
      <point x="85.57457457457457" y="0.0" type="line" identifier="U6WibAQAUl"/>
      <point x="1182.3133133133135" y="0.0" type="line" identifier="dfgNHTgBfR"/>
    </contour>
    <contour>
      <point x="749.5745745745745" y="624.8648648648649" type="line" identifier="SnrsQD5TLy"/>
      <point x="720.8098098098097" y="421.4794794794795" type="line" identifier="jjd5iRDXWT"/>
      <point x="640.2232232232232" y="421.4794794794795" type="line" identifier="YbQKHpAtYn"/>
      <point x="640.2232232232232" y="974.9879879879879" type="line" identifier="vdfGLkskOQ"/>
      <point x="669.3483483483484" y="1178.5205205205204" type="line" identifier="qXlVxK5ShE"/>
      <point x="749.5745745745745" y="1178.5205205205204" type="line" identifier="g70r2r6DwY"/>
    </contour>
  </outline>
</glyph>
<glyph name="P" format="2">
  <advance width="1380.5185185185185"/>
  <unicode hex="0050"/>
  <outline>
    <contour>
      <point x="90.66266266266265" y="0.0" type="line" identifier="EG08jqU5fb"/>
      <point x="645.3113113113113" y="0.0" type="line" identifier="osRzIFK2Cu"/>
      <point x="645.3113113113113" y="486.41541541541545" type="line" identifier="hIFVovVRwe"/>
      <point x="1302.032032032032" y="616.6176176176176" type="line" identifier="Tt6D8zYZmU"/>
      <point x="1302.032032032032" y="1600.0" type="line" identifier="6xW04auDFu"/>
      <point x="90.66266266266265" y="1600.0" type="line" identifier="eETO5GBD5v"/>
    </contour>
    <contour>
      <point x="645.3113113113113" y="853.1801801801803" type="line" identifier="PIBVN1PGv1"/>
      <point x="645.3113113113113" y="1178.5205205205204" type="line" identifier="IZIZQr2gYJ"/>
      <point x="747.3833833833835" y="1178.5205205205204" type="line" identifier="2c4LCF1E1R"/>
      <point x="747.3833833833835" y="875.5195195195195" type="line" identifier="1WCnzth1GX"/>
    </contour>
  </outline>
</glyph>
<glyph name="Q" format="2">
  <advance width="1386.4884884884884"/>
  <unicode hex="0051"/>
  <outline>
    <contour>
      <point x="1304.2232232232234" y="1600.0" type="line" identifier="c9brEFyXXA"/>
      <point x="188.65565565565566" y="1600.0" type="line" identifier="a4Ql951bxG"/>
      <point x="85.57457457457457" y="1039.8408408408409" type="line" identifier="kbL68Qh2zr"/>
      <point x="85.57457457457457" y="0.0" type="line" identifier="U6WibAQAUl"/>
      <point x="1304.2232232232234" y="0.0" type="line" identifier="dfgNHTgBfR"/>
    </contour>
    <contour>
      <point x="749.5745745745745" y="421.4794794794795" type="line" identifier="jjd5iRDXWT"/>
      <point x="640.2232232232232" y="421.4794794794795" type="line" identifier="YbQKHpAtYn"/>
      <point x="640.2232232232232" y="1040.8408408408409" type="line" identifier="vdfGLkskOQ"/>
      <point x="654.7187187187187" y="1178.5205205205204" type="line" identifier="qXlVxK5ShE"/>
      <point x="749.5745745745745" y="1178.5205205205204" type="line" identifier="g70r2r6DwY"/>
    </contour>
    <contour>
      <point x="503.6466466466467" y="-286.06606606606607" type="line"/>
      <point x="893.9079079079079" y="-286.06606606606607" type="line"/>
      <point x="893.9079079079079" y="0.7207207207207207" type="line"/>
      <point x="503.6466466466467" y="0.7207207207207207" type="line"/>
    </contour>
  </outline>
</glyph>
<glyph name="R" format="2">
  <advance width="1394.900900900901"/>
  <unicode hex="0052"/>
  <outline>
    <contour>
      <point x="646.4144144144144" y="919.5485485485485" type="line"/>
      <point x="646.4144144144144" y="1178.5205205205204" type="line"/>
      <point x="750.1261261261261" y="1178.5205205205204" type="line"/>
      <point x="750.1261261261261" y="961.9089089089089" type="line"/>
      <point x="714.009009009009" y="919.5485485485485" type="line"/>
    </contour>
    <contour>
      <point x="1308.7747747747749" y="0.0" type="line"/>
      <point x="1308.7747747747749" y="542.8808808808808" type="line"/>
      <point x="1205.6936936936938" y="707.8088088088089" type="line"/>
      <point x="1205.6936936936938" y="709.8088088088089" type="line"/>
      <point x="1304.7747747747749" y="879.7367367367367" type="line"/>
      <point x="1304.7747747747749" y="1600.0" type="line"/>
      <point x="91.76576576576576" y="1600.0" type="line"/>
      <point x="91.76576576576576" y="0.0" type="line"/>
      <point x="646.4144144144144" y="0.0" type="line"/>
      <point x="646.4144144144144" y="498.0690690690691" type="line"/>
      <point x="714.009009009009" y="498.0690690690691" type="line"/>
      <point x="754.1261261261261" y="460.0690690690691" type="line"/>
      <point x="754.1261261261261" y="0.0" type="line"/>
    </contour>
  </outline>
</glyph>
<glyph name="S" format="2">
  <advance width="1498"/>
  <unicode hex="0053"/>
  <outline>
    <contour>
      <point x="147" y="0" type="line" identifier="09VlJ0BjUX"/>
      <point x="1354" y="0" type="line" identifier="EagWihqFM8"/>
      <point x="1354" y="993" type="line" identifier="KfNuQA7eZe"/>
      <point x="700" y="993" type="line" identifier="At364YZFEy"/>
      <point x="700" y="1206" type="line" identifier="BcuLfvaQKC"/>
      <point x="800" y="1206" type="line" identifier="3ZUkG35meB"/>
      <point x="800" y="1087" type="line" identifier="DTOJhFIl15"/>
      <point x="1354" y="1087" type="line" identifier="9KDcrfQ5Ui"/>
      <point x="1354" y="1600" type="line" identifier="SaF9ojRFrW"/>
      <point x="145" y="1600" type="line" identifier="F4sQEYelA8"/>
      <point x="145" y="615" type="line" identifier="3sQ8t8BZ6b"/>
      <point x="800" y="615" type="line" identifier="yiV6OCBLHg"/>
      <point x="800" y="421" type="line" identifier="9kdl9SYsn8"/>
      <point x="701" y="421" type="line" identifier="yZDWuX8LLe"/>
      <point x="701" y="529" type="line" identifier="jYb9001DTm"/>
      <point x="147" y="529" type="line" identifier="ho4DrS0rdW"/>
    </contour>
  </outline>
</glyph>
<glyph name="U" format="2">
  <advance width="1532"/>
  <unicode hex="0055"/>
  <outline>
    <contour>
      <point x="818" y="1600" type="line" smooth="yes"/>
      <point x="818" y="421" type="line"/>
      <point x="739" y="421" type="line" smooth="yes"/>
      <point x="712" y="552" type="line" smooth="yes"/>
      <point x="712" y="1600" type="line"/>
      <point x="157" y="1600" type="line" smooth="yes"/>
      <point x="157" y="552" type="line" smooth="yes"/>
      <point x="272" y="0" type="line" smooth="yes"/>
      <point x="1373" y="0" type="line" smooth="yes"/>
      <point x="1373" y="1600" type="line" smooth="yes"/>
    </contour>
  </outline>
</glyph>
<glyph name="W" format="2">
  <advance width="2112.4684684684685"/>
  <unicode hex="0057"/>
  <outline>
    <contour>
      <point x="1472.2192192192192" y="1600.0" type="line" smooth="yes" identifier="12Pyby1xY2"/>
      <point x="1473.3223223223224" y="-459.8998998998999" type="line" smooth="yes" identifier="5LJg4ajoG6"/>
      <point x="1366.5765765765766" y="422.5825825825826" type="line" smooth="yes" identifier="ZqTZqAY3uY"/>
      <point x="1288.099099099099" y="703.2632632632633" type="line" smooth="yes" identifier="rCeQLyjlsN"/>
      <point x="1264.0220220220222" y="569.8948948948948" type="line"/>
      <point x="1263.11011011011" y="2336.321321321321" type="line"/>
      <point x="748.2952952952953" y="2482.4824824824827" type="line" smooth="yes" identifier="Pkl7cZ37MU"/>
      <point x="720.5265265265265" y="690.9329329329329" type="line" smooth="yes" identifier="R4lklfJsHA"/>
      <point x="696.2582582582584" y="253.8078078078078" type="line" smooth="yes" identifier="7g7f8Wu7K4"/>
      <point x="602.3053053053053" y="-459.8998998998999" type="line" smooth="yes" identifier="RTOJW56qXy"/>
      <point x="539.9069069069069" y="-162.27327327327328" type="line" identifier="JfSFAkWGZC"/>
      <point x="539.9069069069069" y="2313.156156156156" type="line" smooth="yes" identifier="WWvGwSpq0g"/>
      <point x="7.783783783783804" y="2481.3793793793793" type="line" smooth="yes" identifier="oee4nqI8Wl"/>
      <point x="34.258258258258266" y="707.2252252252251" type="line" identifier="Ljn2lpvpG8"/>
      <point x="186.3193193193193" y="-146.16116116116115" type="line"/>
      <point x="1007.063063063063" y="-882.4824824824825" type="line" smooth="yes"/>
      <point x="1008.1661661661661" y="-448.7277277277277" type="line"/>
      <point x="1021.5985985985985" y="285.9389389389389" type="line"/>
      <point x="1100.108108108108" y="-147.81581581581582" type="line"/>
      <point x="2099.3613613613616" y="-1.103103103103103" type="line" identifier="GlWB6PG54Z"/>
      <point x="2125.835835835836" y="2481.3793793793793" type="line" identifier="iqeTRv7HXg"/>
    </contour>
  </outline>
</glyph>
<glyph name="X" format="2">
  <advance width="1402.1801801801803"/>
  <unicode hex="0058"/>
  <outline>
    <contour>
      <point x="702.2142142142143" y="589.2602602602602" type="line"/>
      <point x="761.4054054054054" y="543.2602602602602" type="line"/>
      <point x="761.4054054054054" y="0.0" type="line"/>
      <point x="1316.0540540540542" y="0.0" type="line"/>
      <point x="1316.0540540540542" y="626.072072072072" type="line"/>
      <point x="1193.5385385385384" y="799.0" type="line"/>
      <point x="1193.5385385385384" y="801.0" type="line"/>
      <point x="1312.0540540540542" y="970.927927927928" type="line"/>
      <point x="1312.0540540540542" y="1600.0" type="line"/>
      <point x="758.3173173173174" y="1600.0" type="line"/>
      <point x="758.3173173173174" y="1053.7397397397397" type="line"/>
      <point x="702.2142142142143" y="1010.7397397397398" type="line"/>
      <point x="699.965965965966" y="1010.7397397397398" type="line"/>
      <point x="643.8628628628628" y="1053.7397397397397" type="line"/>
      <point x="643.8628628628628" y="1600.0" type="line"/>
      <point x="90.12612612612614" y="1600.0" type="line"/>
      <point x="90.12612612612614" y="970.927927927928" type="line"/>
      <point x="208.64164164164166" y="801.0" type="line"/>
      <point x="208.64164164164166" y="799.0" type="line"/>
      <point x="86.12612612612614" y="626.072072072072" type="line"/>
      <point x="86.12612612612614" y="0.0" type="line"/>
      <point x="640.7747747747748" y="0.0" type="line"/>
      <point x="640.7747747747748" y="543.2602602602602" type="line"/>
      <point x="699.965965965966" y="589.2602602602602" type="line"/>
    </contour>
  </outline>
</glyph>
<glyph name="Y" format="2">
  <advance width="1337.4734734734736"/>
  <unicode hex="0059"/>
  <outline>
    <contour>
      <point x="392.963963963964" y="0.0" type="line" identifier="XKjckKJ7m9"/>
      <point x="946.7007007007007" y="0.0" type="line" identifier="WihjL321cU"/>
      <point x="946.7007007007007" y="552.2392392392393" type="line" identifier="rvzWMWl6O1"/>
      <point x="1276.061061061061" y="698.5815815815815" type="line" identifier="YbKEFhFR3q"/>
      <point x="1276.061061061061" y="1600.0" type="line" identifier="wnC8PudY2b"/>
      <point x="721.4124124124124" y="1600.0" type="line" identifier="spI4xe8t4f"/>
      <point x="721.4124124124124" y="1046.7987987987988" type="line" identifier="Jw55i2s2Mm"/>
      <point x="670.3763763763765" y="1016.5915915915916" type="line" identifier="9ncbEH2hEb"/>
      <point x="669.2882882882883" y="1016.5915915915916" type="line" identifier="u7HFbTQwMo"/>
      <point x="615.1491491491491" y="1046.7987987987988" type="line" identifier="oy8ifCCtGL"/>
      <point x="615.1491491491491" y="1600.0" type="line" identifier="ah5yat5gKV"/>
      <point x="61.41241241241241" y="1600.0" type="line" identifier="fJXhpKV79E"/>
      <point x="61.41241241241241" y="698.5815815815815" type="line" identifier="k3vH9oxqcN"/>
      <point x="392.963963963964" y="552.2392392392393" type="line" identifier="3Kveia3O9h"/>
    </contour>
  </outline>
</glyph>
<glyph name="C.wide" format="2">
  <advance width="1335.803803803804"/>
  <outline>
    <contour>
      <point x="60.84584584584586" y="0.0" type="line" identifier="7lPhzTnk2Z"/>
      <point x="1276.854854854855" y="0.0" type="line" identifier="qJVLZGnkwh"/>
      <point x="1276.854854854855" y="421.4794794794795" type="line" identifier="Y750RHTvDj"/>
      <point x="615.4944944944946" y="421.4794794794795" type="line" identifier="L2LsGnXiZ2"/>
      <point x="615.4944944944946" y="963.998998998999" type="line" identifier="sUWsr03vF4"/>
      <point x="655.6266266266266" y="1178.5205205205204" type="line" identifier="dbOUe6OhxL"/>
      <point x="1275.854854854855" y="1178.5205205205204" type="line" identifier="5BjRbcud80"/>
      <point x="1275.854854854855" y="1600.0" type="line" identifier="9eJelv8BOw"/>
      <point x="175.84584584584584" y="1600.0" type="line" identifier="lfZev3ICaC"/>
      <point x="60.84584584584586" y="996.0690690690691" type="line" identifier="V1EWIdPahq"/>
    </contour>
  </outline>
</glyph>
<glyph name="E.wide" format="2">
  <advance width="1375.2242242242241"/>
  <outline>
    <contour>
      <point x="90.66266266266265" y="0.0" type="line" identifier="fZynkQ4XHB"/>
      <point x="1221.6356356356357" y="0.0" type="line" identifier="FAQNpgUPxV"/>
      <point x="1221.6356356356357" y="404.15315315315314" type="line" identifier="5cgTYOhATF"/>
      <point x="645.3113113113113" y="404.15315315315314" type="line" identifier="bWs42DaCgU"/>
      <point x="645.3113113113113" y="607.4984984984985" type="line" identifier="VtD2aADJmn"/>
      <point x="1174.053053053053" y="607.4984984984985" type="line" identifier="PpbsFdHAnS"/>
      <point x="1174.053053053053" y="993.4134134134134" type="line" identifier="8WuC5p8Ax5"/>
      <point x="645.3113113113113" y="993.4134134134134" type="line" identifier="m39IWn9ntA"/>
      <point x="645.3113113113113" y="1205.8778778778778" type="line" identifier="gQ21I4SHQg"/>
      <point x="1220.6356356356357" y="1205.8778778778778" type="line" identifier="eqNb2VTwYs"/>
      <point x="1220.6356356356357" y="1600.0" type="line" identifier="qYRmo14Il5"/>
      <point x="90.66266266266265" y="1600.0" type="line" identifier="HmJIcnLWfC"/>
    </contour>
  </outline>
</glyph>
<glyph name="F.wide" format="2">
  <advance width="1376.8938938938938"/>
  <outline>
    <contour>
      <point x="90.66266266266265" y="0.0" type="line" identifier="oAgH2tA6DJ"/>
      <point x="645.3113113113113" y="0.0" type="line" identifier="zCZyMcW5ho"/>
      <point x="645.3113113113113" y="352.1631631631632" type="line" identifier="yHYqkMd7LI"/>
      <point x="1218.6356356356357" y="352.1631631631632" type="line" identifier="NmB7yyQuio"/>
      <point x="1218.6356356356357" y="773.6426426426426" type="line" identifier="wQk2C8zPHh"/>
      <point x="645.3113113113113" y="773.6426426426426" type="line" identifier="4cFHKQfHDt"/>
      <point x="645.3113113113113" y="1178.5205205205204" type="line" identifier="ZvzwyrcwpS"/>
      <point x="1296.3923923923924" y="1178.5205205205204" type="line" identifier="4E754ovOIe"/>
      <point x="1296.3923923923924" y="1600.0" type="line" identifier="NUrIjqOB7J"/>
      <point x="90.66266266266265" y="1600.0" type="line" identifier="TBAYuCfUFX"/>
    </contour>
  </outline>
</glyph>
<glyph name="G.wide" format="2">
  <advance width="1337.4584584584586"/>
  <outline>
    <contour>
      <point x="59.74274274274275" y="0.0" type="line" identifier="7lPhzTnk2Z"/>
      <point x="1274.4724724724724" y="0.0" type="line" identifier="qJVLZGnkwh"/>
      <point x="1274.4724724724724" y="903.082082082082" type="line" identifier="uek1NNj7De"/>
      <point x="651.3973973973974" y="903.082082082082" type="line" identifier="qcvimxjndX"/>
      <point x="651.3973973973974" y="563.6746746746746" type="line" identifier="EARaY3Su65"/>
      <point x="724.9409409409409" y="563.6746746746746" type="line" identifier="4m6dHLVhZq"/>
      <point x="724.9409409409409" y="421.4794794794795" type="line" identifier="Y750RHTvDj"/>
      <point x="614.3913913913914" y="421.4794794794795" type="line" identifier="L2LsGnXiZ2"/>
      <point x="614.3913913913914" y="1029.6436436436436" type="line" identifier="sUWsr03vF4"/>
      <point x="638.0830830830831" y="1178.5205205205204" type="line" identifier="dbOUe6OhxL"/>
      <point x="1274.7517517517517" y="1178.5205205205204" type="line" identifier="5BjRbcud80"/>
      <point x="1274.7517517517517" y="1600.0" type="line" identifier="9eJelv8BOw"/>
      <point x="136.36436436436438" y="1600.0" type="line" identifier="lfZev3ICaC"/>
      <point x="59.74274274274275" y="1043.4364364364365" type="line" identifier="V1EWIdPahq"/>
    </contour>
  </outline>
</glyph>
<glyph name="K.alt" format="2">
  <advance width="1492"/>
  <outline>
    <contour>
      <point x="687" y="0" type="line" identifier="wmNm7XZsaF"/>
      <point x="687" y="589" type="line" identifier="O22liaP9Qk"/>
      <point x="736" y="589" type="line" identifier="ELFBWIb1vd"/>
      <point x="795" y="532" type="line" identifier="DzXo67YEfw"/>
      <point x="795" y="0" type="line" identifier="aKpYWD78l2"/>
      <point x="1349" y="0" type="line" identifier="ChS7KlqGi6"/>
      <point x="1349" y="615" type="line" identifier="sWLgkU8Vey"/>
      <point x="1226" y="799" type="line" identifier="Of0iQc0wBG"/>
      <point x="1226" y="801" type="line" identifier="j4jnmtDJYB"/>
      <point x="1333" y="1600" type="line" identifier="dMJ1ywOKQQ"/>
      <point x="804" y="1600" type="line" identifier="08OWjR2YBJ"/>
      <point x="746" y="1011" type="line" identifier="g4YLdZEoM3"/>
      <point x="687" y="1011" type="line" identifier="uZuki3Isec"/>
      <point x="687" y="1600" type="line" identifier="nRfcNgqJ4H"/>
      <point x="133" y="1600" type="line" identifier="3XJlWt89ad"/>
      <point x="133" y="0" type="line" identifier="wdbO8kCovY"/>
    </contour>
  </outline>
</glyph>
<glyph name="R.alt" format="2">
  <advance width="1530"/>
  <outline>
    <contour>
      <point x="714" y="920" type="line"/>
      <point x="714" y="1179" type="line"/>
      <point x="818" y="1179" type="line"/>
      <point x="818" y="920" type="line"/>
    </contour>
    <contour>
      <point x="1381" y="0" type="line"/>
      <point x="1268" y="609" type="line"/>
      <point x="1373" y="663" type="line"/>
      <point x="1373" y="1600" type="line"/>
      <point x="160" y="1600" type="line"/>
      <point x="160" y="0" type="line"/>
      <point x="714" y="0" type="line"/>
      <point x="714" y="498" type="line"/>
      <point x="798" y="497" type="line"/>
      <point x="878" y="0" type="line"/>
    </contour>
  </outline>
</glyph>
<glyph name="S.alt" format="2">
  <advance width="1271.1171171171172"/>
  <outline>
    <contour>
      <point x="64.97297297297297" y="0.0" type="line" identifier="09VlJ0BjUX"/>
      <point x="1204.5405405405406" y="0.0" type="line" identifier="EagWihqFM8"/>
      <point x="1204.5405405405406" y="983.3823823823824" type="line" identifier="KfNuQA7eZe"/>
      <point x="549.1801801801802" y="983.3823823823824" type="line" identifier="At364YZFEy"/>
      <point x="549.1801801801802" y="1063.3483483483483" type="line"/>
      <point x="577.3643643643643" y="1178.5205205205204" type="line"/>
      <point x="649.2522522522522" y="1178.5205205205204" type="line" identifier="3ZUkG35meB"/>
      <point x="649.2522522522522" y="1132.4624624624626" type="line" identifier="DTOJhFIl15"/>
      <point x="1204.5405405405406" y="1132.4624624624626" type="line" identifier="9KDcrfQ5Ui"/>
      <point x="1204.5405405405406" y="1600.0" type="line" identifier="SaF9ojRFrW"/>
      <point x="186.12612612612614" y="1600.0" type="line"/>
      <point x="62.972972972972975" y="1101.7267267267266" type="line"/>
      <point x="62.972972972972975" y="616.6176176176176" type="line" identifier="3sQ8t8BZ6b"/>
      <point x="649.2522522522522" y="616.6176176176176" type="line" identifier="yiV6OCBLHg"/>
      <point x="649.2522522522522" y="421.4794794794795" type="line" identifier="9kdl9SYsn8"/>
      <point x="602.3513513513514" y="421.4794794794795" type="line" identifier="yZDWuX8LLe"/>
      <point x="602.3513513513514" y="524.7807807807808" type="line" identifier="jYb9001DTm"/>
      <point x="64.97297297297297" y="524.7807807807808" type="line" identifier="ho4DrS0rdW"/>
    </contour>
  </outline>
</glyph>
<glyph name="S.wide" format="2">
  <advance width="1399"/>
  <outline>
    <contour>
      <point x="129" y="0" type="line" identifier="09VlJ0BjUX"/>
      <point x="1269" y="0" type="line" identifier="EagWihqFM8"/>
      <point x="1269" y="983" type="line" identifier="KfNuQA7eZe"/>
      <point x="613" y="983" type="line" identifier="At364YZFEy"/>
      <point x="613" y="1063" type="line"/>
      <point x="641" y="1179" type="line"/>
      <point x="1269" y="1179" type="line" identifier="3ZUkG35meB"/>
      <point x="1269" y="1600" type="line" identifier="SaF9ojRFrW"/>
      <point x="250" y="1600" type="line"/>
      <point x="127" y="1102" type="line"/>
      <point x="127" y="617" type="line" identifier="3sQ8t8BZ6b"/>
      <point x="713" y="617" type="line" identifier="yiV6OCBLHg"/>
      <point x="713" y="421" type="line" identifier="9kdl9SYsn8"/>
      <point x="129" y="421" type="line" identifier="yZDWuX8LLe"/>
    </contour>
  </outline>
</glyph>
<glyph name="Z.wide" format="2">
  <advance width="1354.7837837837837"/>
  <outline>
    <contour>
      <point x="69.56756756756758" y="0.0" type="line"/>
      <point x="1285.5765765765766" y="0.0" type="line" identifier="pzdvPTirLJ"/>
      <point x="1285.5765765765766" y="421.4794794794795" type="line"/>
      <point x="624.2162162162163" y="421.4794794794795" type="line"/>
      <point x="624.2162162162163" y="559.2882882882883" type="line"/>
      <point x="1296.4394394394394" y="1232.0900900900901" type="line" identifier="yyb1NCCI5w"/>
      <point x="1296.4394394394394" y="1600.0" type="line" identifier="5FogYRSgkk"/>
      <point x="73.2072072072072" y="1600.0" type="line" identifier="svlFvrau4c"/>
      <point x="73.2072072072072" y="1178.5205205205204" type="line"/>
      <point x="738.1431431431431" y="1178.5205205205204" type="line"/>
      <point x="738.1431431431431" y="1215.6756756756758" type="line"/>
      <point x="69.56756756756758" y="562.2882882882883" type="line" identifier="teVKnpBcVb"/>
    </contour>
  </outline>
</glyph>
